<mxfile host="65bd71144e">
    <diagram id="bhTtGeC0yYIENmySu_nf" name="PÃ¡gina-1">
        <mxGraphModel dx="1177" dy="780" grid="1" gridSize="10" guides="1" tooltips="1" connect="1" arrows="1" fold="1" page="1" pageScale="1" pageWidth="827" pageHeight="1169" math="0" shadow="0">
            <root>
                <mxCell id="0"/>
                <mxCell id="1" parent="0"/>
                <mxCell id="6" value="&lt;b&gt;&lt;br&gt;SOLDADO&lt;/b&gt;" style="swimlane;fontStyle=0;align=center;verticalAlign=top;childLayout=stackLayout;horizontal=1;startSize=40;horizontalStack=0;resizeParent=1;resizeParentMax=0;resizeLast=0;collapsible=0;marginBottom=0;html=1;" vertex="1" parent="1">
                    <mxGeometry x="30" y="30" width="530" height="380" as="geometry"/>
                </mxCell>
                <mxCell id="7" value="ATRIBUTOS" style="text;html=1;strokeColor=none;fillColor=none;align=center;verticalAlign=middle;spacingLeft=4;spacingRight=4;overflow=hidden;rotatable=0;points=[[0,0.5],[1,0.5]];portConstraint=eastwest;" vertex="1" parent="6">
                    <mxGeometry y="40" width="530" height="20" as="geometry"/>
                </mxCell>
                <mxCell id="10" value="&lt;div&gt;String Nombre,Actitud;&lt;/div&gt;&lt;div&gt;&amp;nbsp; &amp;nbsp; int nivelAtaque,nivelVida,nivelDefensa;&lt;/div&gt;&lt;div&gt;&amp;nbsp; &amp;nbsp; int vidaActual,velocidad;&lt;/div&gt;&lt;div&gt;&amp;nbsp; &amp;nbsp; boolean vive=true;&lt;/div&gt;&lt;div&gt;&amp;nbsp; &amp;nbsp; int fila,columna;&lt;/div&gt;&lt;div&gt;&lt;br&gt;&lt;/div&gt;" style="text;html=1;strokeColor=none;fillColor=none;align=left;verticalAlign=middle;spacingLeft=4;spacingRight=4;overflow=hidden;rotatable=0;points=[[0,0.5],[1,0.5]];portConstraint=eastwest;" vertex="1" parent="6">
                    <mxGeometry y="60" width="530" height="100" as="geometry"/>
                </mxCell>
                <mxCell id="11" value="" style="line;strokeWidth=1;fillColor=none;align=left;verticalAlign=middle;spacingTop=-1;spacingLeft=3;spacingRight=3;rotatable=0;labelPosition=right;points=[];portConstraint=eastwest;" vertex="1" parent="6">
                    <mxGeometry y="160" width="530" height="8" as="geometry"/>
                </mxCell>
                <mxCell id="13" value="&lt;div&gt;Soldado(String Nombre, String Actitud, int nivelAtaque, int nivelVida, int nivelDefensa, int vidaActual, int velocidad, int fila, int columna)&lt;/div&gt;&lt;div&gt;Soldado(String Nombre, int nivelVida, int fila, int columna)&lt;/div&gt;&lt;div&gt;Soldado(String Nombre, int nivelAtaque, int nivelVida, int nivelDefensa, int fila, int columna)&lt;/div&gt;&lt;div&gt;atacar()&lt;/div&gt;&lt;div&gt;defender()&lt;/div&gt;&lt;div&gt;retroceder()&lt;/div&gt;&lt;div&gt;serAtacado()&lt;/div&gt;&lt;div&gt;huir()&lt;/div&gt;&lt;div&gt;morir()&lt;/div&gt;&lt;div&gt;getVidaActual()&lt;/div&gt;&lt;div&gt;setVidaActual(int vidaActual)&lt;/div&gt;&lt;div&gt;getFila()&amp;nbsp;&lt;/div&gt;&lt;div&gt;getColumna()&lt;/div&gt;&lt;div&gt;getNivelVida()&lt;/div&gt;&lt;div&gt;getNombre()&lt;/div&gt;&lt;div&gt;String toString()&amp;nbsp;&lt;/div&gt;" style="text;html=1;strokeColor=none;fillColor=none;align=left;verticalAlign=middle;spacingLeft=4;spacingRight=4;overflow=hidden;rotatable=0;points=[[0,0.5],[1,0.5]];portConstraint=eastwest;" vertex="1" parent="6">
                    <mxGeometry y="168" width="530" height="212" as="geometry"/>
                </mxCell>
            </root>
        </mxGraphModel>
    </diagram>
</mxfile>